<svg version="1.1" xmlns="http://www.w3.org/2000/svg" viewBox="0 0 180.80282647706713 32.624803928457766" width="180.80282647706713" height="32.624803928457766">
  <!-- svg-source:excalidraw -->
  
  <defs>
    <style class="style-fonts">
      
    </style>
    
  </defs>
  <g stroke-opacity="0.6" fill-opacity="0.6" stroke-linecap="round" transform="translate(10 10) rotate(0 80.40141323853356 6.312401964228883)"><path d="M3.16 0 C60.07 0, 116.98 0, 157.65 0 C159.75 0, 160.8 1.05, 160.8 3.16 C160.8 5.46, 160.8 7.77, 160.8 9.47 C160.8 11.57, 159.75 12.62, 157.65 12.62 C126.21 12.62, 94.77 12.62, 3.16 12.62 C1.05 12.62, 0 11.57, 0 9.47 C0 7.82, 0 6.18, 0 3.16 C0 1.05, 1.05 0, 3.16 0" stroke="none" stroke-width="0" fill="#868e96"></path><path d="M3.16 0 C52.37 0, 101.58 0, 157.65 0 M3.16 0 C61.58 0, 120 0, 157.65 0 M157.65 0 C159.75 0, 160.8 1.05, 160.8 3.16 M157.65 0 C159.75 0, 160.8 1.05, 160.8 3.16 M160.8 3.16 C160.8 5.47, 160.8 7.78, 160.8 9.47 M160.8 3.16 C160.8 4.57, 160.8 5.99, 160.8 9.47 M160.8 9.47 C160.8 11.57, 159.75 12.62, 157.65 12.62 M160.8 9.47 C160.8 11.57, 159.75 12.62, 157.65 12.62 M157.65 12.62 C124.78 12.62, 91.91 12.62, 3.16 12.62 M157.65 12.62 C115.2 12.62, 72.74 12.62, 3.16 12.62 M3.16 12.62 C1.05 12.62, 0 11.57, 0 9.47 M3.16 12.62 C1.05 12.62, 0 11.57, 0 9.47 M0 9.47 C0 7.87, 0 6.27, 0 3.16 M0 9.47 C0 7.65, 0 5.82, 0 3.16 M0 3.16 C0 1.05, 1.05 0, 3.16 0 M0 3.16 C0 1.05, 1.05 0, 3.16 0" stroke="#1e1e1e" stroke-width="1" fill="none"></path></g></svg>