<svg version="1.1" xmlns="http://www.w3.org/2000/svg" viewBox="0 0 178.42078819458175 29.665230642399024" width="178.42078819458175" height="29.665230642399024">
  <!-- svg-source:excalidraw -->
  
  <defs>
    <style class="style-fonts">
      
    </style>
    
  </defs>
  <g stroke-linecap="round" transform="translate(10 10) rotate(0 79.21039409729087 4.832615321199512)"><path d="M2.42 0 C52.49 0, 102.56 0, 156 0 C157.62 0, 158.42 0.81, 158.42 2.42 C158.42 4.28, 158.42 6.15, 158.42 7.25 C158.42 8.86, 157.62 9.67, 156 9.67 C114.18 9.67, 72.36 9.67, 2.42 9.67 C0.81 9.67, 0 8.86, 0 7.25 C0 5.45, 0 3.66, 0 2.42 C0 0.81, 0.81 0, 2.42 0" stroke="none" stroke-width="0" fill="#b50c1c"></path><path d="M2.42 0 C62.13 0, 121.85 0, 156 0 M2.42 0 C46.52 0, 90.62 0, 156 0 M156 0 C157.62 0, 158.42 0.81, 158.42 2.42 M156 0 C157.62 0, 158.42 0.81, 158.42 2.42 M158.42 2.42 C158.42 4.24, 158.42 6.07, 158.42 7.25 M158.42 2.42 C158.42 3.9, 158.42 5.39, 158.42 7.25 M158.42 7.25 C158.42 8.86, 157.62 9.67, 156 9.67 M158.42 7.25 C158.42 8.86, 157.62 9.67, 156 9.67 M156 9.67 C96.93 9.67, 37.85 9.67, 2.42 9.67 M156 9.67 C116.65 9.67, 77.3 9.67, 2.42 9.67 M2.42 9.67 C0.81 9.67, 0 8.86, 0 7.25 M2.42 9.67 C0.81 9.67, 0 8.86, 0 7.25 M0 7.25 C0 5.92, 0 4.58, 0 2.42 M0 7.25 C0 6.03, 0 4.82, 0 2.42 M0 2.42 C0 0.81, 0.81 0, 2.42 0 M0 2.42 C0 0.81, 0.81 0, 2.42 0" stroke="#b50c1c" stroke-width="2" fill="none"></path></g></svg>