<svg version="1.1" xmlns="http://www.w3.org/2000/svg" viewBox="0 0 183 38" width="183" height="38" filter="invert(93%) hue-rotate(180deg)">
  <!-- svg-source:excalidraw -->
  
  <defs>
    <style class="style-fonts">
      
    </style>
    
  </defs>
  <g stroke-linecap="round" transform="translate(10 10) rotate(0 81.5 9)"><path d="M4.5 0 C40.87 -1, 70.61 1.23, 158.5 0 C163.78 -0.72, 160.15 5.01, 163 4.5 C162.73 7.72, 164.35 9.51, 163 13.5 C165.37 16.87, 160.22 17.68, 158.5 18 C98.31 16.22, 43.49 19.26, 4.5 18 C4.6 19.41, -3.48 14.53, 0 13.5 C-0.88 8.5, -0.57 5.06, 0 4.5 C0.3 0.02, 0.7 1.61, 4.5 0" stroke="none" stroke-width="0" fill="#e9ecef"></path><path d="M4.5 0 C40.9 2.5, 78.56 -0.6, 158.5 0 M4.5 0 C53.07 0.46, 101.51 0, 158.5 0 M158.5 0 C162.31 -0.6, 162.87 2.63, 163 4.5 M158.5 0 C161.58 -0.78, 165.2 1.58, 163 4.5 M163 4.5 C163.69 7.12, 162.26 9.79, 163 13.5 M163 4.5 C163.34 7.26, 163.06 10.61, 163 13.5 M163 13.5 C161.46 18.33, 162.07 18.49, 158.5 18 M163 13.5 C165.27 17.93, 163.6 16.38, 158.5 18 M158.5 18 C115.4 18.87, 72.98 16.72, 4.5 18 M158.5 18 C117.16 18.18, 74.26 17.22, 4.5 18 M4.5 18 C0.82 16.08, 0.75 17.92, 0 13.5 M4.5 18 C0.35 18.91, -0.55 18.18, 0 13.5 M0 13.5 C-0.43 11.9, 0.73 8.81, 0 4.5 M0 13.5 C0.33 10.74, 0.16 8.77, 0 4.5 M0 4.5 C-1.35 3.31, 1.8 -0.5, 4.5 0 M0 4.5 C-0.52 3.34, 1.24 -1.72, 4.5 0" stroke="#868e96" stroke-width="1" fill="none"></path></g></svg>