<svg version="1.1" xmlns="http://www.w3.org/2000/svg" viewBox="0 0 178.4207879999999 30.242765451390312" width="178.4207879999999" height="30.242765451390312">
  <!-- svg-source:excalidraw -->
  
  <defs>
    <style class="style-fonts">
      
    </style>
    
  </defs>
  <g stroke-opacity="0.6" fill-opacity="0.6" stroke-linecap="round" transform="translate(10 10) rotate(0 79.21039399999995 5.121382725695156)"><path d="M2.56 0 C59.03 0, 115.5 0, 155.86 0 C157.57 0, 158.42 0.85, 158.42 2.56 C158.42 4.43, 158.42 6.31, 158.42 7.68 C158.42 9.39, 157.57 10.24, 155.86 10.24 C124.66 10.24, 93.47 10.24, 2.56 10.24 C0.85 10.24, 0 9.39, 0 7.68 C0 6.35, 0 5.01, 0 2.56 C0 0.85, 0.85 0, 2.56 0" stroke="none" stroke-width="0" fill="#868e96"></path><path d="M2.56 0 C51.39 0, 100.22 0, 155.86 0 M2.56 0 C60.53 0, 118.5 0, 155.86 0 M155.86 0 C157.57 0, 158.42 0.85, 158.42 2.56 M155.86 0 C157.57 0, 158.42 0.85, 158.42 2.56 M158.42 2.56 C158.42 4.44, 158.42 6.31, 158.42 7.68 M158.42 2.56 C158.42 3.71, 158.42 4.86, 158.42 7.68 M158.42 7.68 C158.42 9.39, 157.57 10.24, 155.86 10.24 M158.42 7.68 C158.42 9.39, 157.57 10.24, 155.86 10.24 M155.86 10.24 C123.25 10.24, 90.63 10.24, 2.56 10.24 M155.86 10.24 C113.74 10.24, 71.61 10.24, 2.56 10.24 M2.56 10.24 C0.85 10.24, 0 9.39, 0 7.68 M2.56 10.24 C0.85 10.24, 0 9.39, 0 7.68 M0 7.68 C0 6.39, 0 5.09, 0 2.56 M0 7.68 C0 6.2, 0 4.72, 0 2.56 M0 2.56 C0 0.85, 0.85 0, 2.56 0 M0 2.56 C0 0.85, 0.85 0, 2.56 0" stroke="#1e1e1e" stroke-width="1" fill="none"></path></g></svg>